<svg xmlns="http://www.w3.org/2000/svg" viewBox="0 0 206.39 221.6"><defs><style>.cls-1{fill:#fff;}</style></defs><title>energy_icon</title><g id="Layer_2" data-name="Layer 2"><g id="Layer_1-2" data-name="Layer 1"><g id="Page-1"><g id="OnderwerpEnergie"><g id="bio-ennergy"><g id="Layer_1-3" data-name="Layer 1"><g id="_Group_" data-name="&lt;Group&gt;"><g id="_Group_2" data-name="&lt;Group&gt;"><g id="_Group_3" data-name="&lt;Group&gt;"><path id="_Compound_Path_" data-name="&lt;Compound Path&gt;" class="cls-1" d="M43,103.41c-8.83,0-19.13-4.43-30.9-15.51C-4,71.65-4,45.06,12.14,29.55,25.38,15.51,56.29,0,99.7,0a4,4,0,0,1,3.68,2.22,3.26,3.26,0,0,1-.74,3.69C90.13,18.47,87.19,35.46,84.25,52.44,81.3,67.22,79.1,82,69.53,91.59h0C62.91,97.5,54.08,103.41,43,103.41Zm48.56-96C57,9.6,29.8,21.42,17.29,34a34,34,0,0,0,0,48c16.92,17,31.64,17.73,46.35,3.69C71.74,77.56,73.95,65,76.15,51,79.1,36.93,82,20.68,91.61,7.39Z"/></g></g><g id="_Group_4" data-name="&lt;Group&gt;"><g id="_Group_5" data-name="&lt;Group&gt;"><path id="_Path_" data-name="&lt;Path&gt;" class="cls-1" d="M103.38,221.6c-70.64,0-95.65-49.49-95.65-96,0-2.22,0-49.49,37.53-87.9a8.09,8.09,0,0,1,5.89,0c1.47.74,1.47,3.69,0,5.17-36.05,36.19-36.05,82-36.05,82.73,0,42.84,23.55,88.64,88.29,88.64,59.6,0,69.9-51.71,69.9-52.44,0-2.22,2.21-3,4.41-3a3.25,3.25,0,0,1,2.94,4.43c0,.74-11,58.35-77.26,58.35Z"/></g></g><g id="_Group_6" data-name="&lt;Group&gt;"><path id="_Path_2" data-name="&lt;Path&gt;" class="cls-1" d="M158.56,110.8a3.48,3.48,0,0,1-3.68-3.69V77.56a3.68,3.68,0,1,1,7.36,0v29.55a3.48,3.48,0,0,1-3.68,3.69Z"/></g><g id="_Group_7" data-name="&lt;Group&gt;"><path id="_Path_3" data-name="&lt;Path&gt;" class="cls-1" d="M195.35,110.8a3.48,3.48,0,0,1-3.68-3.69V77.56a3.68,3.68,0,1,1,7.36,0v29.55a3.48,3.48,0,0,1-3.68,3.69Z"/></g><g id="_Group_8" data-name="&lt;Group&gt;"><path id="_Compound_Path_2" data-name="&lt;Compound Path&gt;" class="cls-1" d="M180.64,162.51h-7.36a26.12,26.12,0,0,1-25.75-25.85V107.11a3.48,3.48,0,0,1,3.68-3.69h51.51a3.48,3.48,0,0,1,3.68,3.69v29.55a26.12,26.12,0,0,1-25.75,25.85ZM154.88,110.8v25.85a18.25,18.25,0,0,0,18.39,18.47h7.36A18.25,18.25,0,0,0,199,136.65V110.8Z"/></g></g></g></g></g></g></g></g></svg>