<svg xmlns="http://www.w3.org/2000/svg" viewBox="0 0 84 84"><defs><style>.cls-1{fill:#27ae60;}</style></defs><title>icon_question_green</title><g id="Layer_2" data-name="Layer 2"><g id="Layer_1-2" data-name="Layer 1"><path class="cls-1" d="M42,0A42,42,0,1,0,84,42,42,42,0,0,0,42,0Zm0,4A38,38,0,1,1,4,42,38,38,0,0,1,42,4Zm0,12c-7.91,0-14.37,5.23-15.94,11.5a2,2,0,1,0,3.88,1C31,24.29,35.93,20,42,20a13.65,13.65,0,0,1,8.38,2.91A9,9,0,0,1,54,30c0,3.44-.75,5.17-1.78,6.5a20.25,20.25,0,0,1-4.34,3.63,16.77,16.77,0,0,0-5.41,5.78C41,48.71,40,52.53,40,58a2,2,0,0,0,4,0c0-5,.82-8.11,1.94-10.19a12.57,12.57,0,0,1,4.22-4.44A22.19,22.19,0,0,0,55.41,39C57,36.92,58,34.06,58,30a13.17,13.17,0,0,0-5.12-10.19A17.33,17.33,0,0,0,42,16Zm0,46a3,3,0,1,0,3,3A3,3,0,0,0,42,62Z"/></g></g></svg>