<svg xmlns="http://www.w3.org/2000/svg" viewBox="0 0 225.15 232.27"><defs><style>.cls-1{fill:#fff;}</style></defs><title>natuur_icon</title><g id="Layer_2" data-name="Layer 2"><g id="Layer_1-2" data-name="Layer 1"><g id="Page-1"><g id="OnderwerpNatuur"><g id="forrest"><g id="Layer_1-3" data-name="Layer 1"><g id="_Group_" data-name="&lt;Group&gt;"><g id="_Group_2" data-name="&lt;Group&gt;"><path id="_Path_" data-name="&lt;Path&gt;" class="cls-1" d="M77.53,154.85H3.88a4,4,0,0,1-3.1-1.55C0,152.52,0,151,0,150.2L46.52,3.1C47.29.77,48.84,0,50.39,0h0a4.26,4.26,0,0,1,3.88,2.32L93,114.59q1.16,3.48-2.33,4.65t-4.65-2.32L50.39,16.26,9.3,147.1H77.53a3.87,3.87,0,1,1,0,7.74Z"/></g><g id="_Group_3" data-name="&lt;Group&gt;"><path id="_Path_2" data-name="&lt;Path&gt;" class="cls-1" d="M221,154.85H147.3a3.87,3.87,0,1,1,0-7.74h68.22L166.68,15.48l-31,98.33a3.68,3.68,0,0,1-7-2.32L163.58,3.1a2.84,2.84,0,0,1,3.1-3.1,4.26,4.26,0,0,1,3.88,2.32l54.27,147.1c.78,1.55,0,2.32-.78,3.87a4,4,0,0,1-3.1,1.55Z"/></g><g id="_Group_4" data-name="&lt;Group&gt;"><path id="_Path_3" data-name="&lt;Path&gt;" class="cls-1" d="M112.41,232.27a3.66,3.66,0,0,1-3.88-3.87V174.2a3.88,3.88,0,0,1,7.75,0v54.2a3.66,3.66,0,0,1-3.88,3.87Z"/></g><g id="_Group_5" data-name="&lt;Group&gt;"><path id="_Path_4" data-name="&lt;Path&gt;" class="cls-1" d="M174.44,178.07a3.66,3.66,0,0,1-3.88-3.87V127.75a3.88,3.88,0,0,1,7.75,0V174.2a3.66,3.66,0,0,1-3.88,3.87Z"/></g><g id="_Group_6" data-name="&lt;Group&gt;"><path id="_Path_5" data-name="&lt;Path&gt;" class="cls-1" d="M50.39,178.07a3.66,3.66,0,0,1-3.88-3.87V127.75a3.88,3.88,0,0,1,7.75,0V174.2a3.66,3.66,0,0,1-3.88,3.87Z"/></g><g id="_Group_7" data-name="&lt;Group&gt;"><path id="_Compound_Path_" data-name="&lt;Compound Path&gt;" class="cls-1" d="M158.93,201.3h-93a4,4,0,0,1-3.1-1.55c-.78-.77-.78-2.32-.78-3.1l46.52-147.1c.78-3.1,6.2-3.1,7.75,0l46.52,147.1c0,1.55,0,2.32-.78,3.1a4,4,0,0,1-3.1,1.55Zm-87.61-7.74H153.5L112.41,63.49,71.33,193.56Z"/></g></g></g></g></g></g></g></g></svg>