<svg xmlns="http://www.w3.org/2000/svg" viewBox="0 0 349.97 728.1"><defs><style>.cls-1{fill:#eef3f4;}.cls-2{fill:#dcdbdb;}.cls-3{fill:#bdc2c6;}.cls-4{fill:#fff;}.cls-5{fill:#3f4040;}.cls-6{fill:#edf0f1;}.cls-7{fill:#bdc3c7;}</style></defs><title>scherm_example_1</title><g id="Layer_2" data-name="Layer 2"><g id="Layer_1-2" data-name="Layer 1"><rect class="cls-1" x="5.99" width="343.98" height="728.1" rx="47" ry="47"/></g><g id="Phone"><rect class="cls-2" x="18.99" y="85.95" width="317.98" height="563.97"/><circle class="cls-3" cx="177.98" cy="689.6" r="28.99"/><circle class="cls-4" cx="177.98" cy="689.6" r="25.45"/><circle class="cls-5" cx="184.4" cy="14.3" r="4.34" transform="translate(110.39 183.8) rotate(-70.85)"/><circle class="cls-5" cx="128.09" cy="42.8" r="5.09" transform="translate(45.63 149.76) rotate(-70.85)"/><rect class="cls-5" x="149.15" y="38.12" width="70.5" height="10.08" rx="3.12" ry="3.12"/><polygon class="cls-3" points="0 204.32 5.99 206.05 5.99 140.66 0 142.4 0 204.32"/><polygon class="cls-3" points="0 117.78 5.99 118.65 5.99 85.95 0 86.82 0 117.78"/><polygon class="cls-3" points="0 280.32 5.99 282.05 5.99 216.66 0 218.4 0 280.32"/></g><g id="Lightbulb"><circle class="cls-6" cx="177.98" cy="362.53" r="118.73"/><polygon class="cls-7" points="272.54 363.53 127.54 279.81 127.54 447.25 272.54 363.53"/></g></g></svg>