<svg xmlns="http://www.w3.org/2000/svg" viewBox="0 0 349.97 728.1"><defs><style>.cls-1{fill:#eef3f4;}.cls-2{fill:#dcdbdb;}.cls-3{fill:#bdc2c6;}.cls-4,.cls-9{fill:#fff;}.cls-5{fill:#3f4040;}.cls-10,.cls-6{fill:#35495e;}.cls-7{fill:#24ae5f;}.cls-11,.cls-8{fill:none;}.cls-10,.cls-9{font-size:30px;font-family:Avenir-Heavy, Avenir;}.cls-11{stroke:#231f20;stroke-miterlimit:10;stroke-width:3px;}</style></defs><title>scherm_example_2</title><g id="Layer_2" data-name="Layer 2"><g id="Layer_1-2" data-name="Layer 1"><rect class="cls-1" x="5.99" width="343.98" height="728.1" rx="47" ry="47"/></g><g id="Phone"><rect class="cls-2" x="18.99" y="85.95" width="317.98" height="563.97"/><circle class="cls-3" cx="177.98" cy="689.6" r="28.99"/><circle class="cls-4" cx="177.98" cy="689.6" r="25.45"/><circle class="cls-5" cx="184.4" cy="14.3" r="4.34" transform="translate(110.39 183.8) rotate(-70.85)"/><circle class="cls-5" cx="128.09" cy="42.8" r="5.09" transform="translate(45.63 149.76) rotate(-70.85)"/><rect class="cls-5" x="149.15" y="38.12" width="70.5" height="10.08" rx="3.12" ry="3.12"/><polygon class="cls-3" points="0 204.32 5.99 206.05 5.99 140.66 0 142.4 0 204.32"/><polygon class="cls-3" points="0 117.78 5.99 118.65 5.99 85.95 0 86.82 0 117.78"/><polygon class="cls-3" points="0 280.32 5.99 282.05 5.99 216.66 0 218.4 0 280.32"/><rect class="cls-6" x="32.68" y="250.08" width="290.6" height="208.64"/><rect class="cls-4" x="55.61" y="290.05" width="209.99" height="6.15" rx="3.08" ry="3.08"/><rect class="cls-4" x="55.19" y="324.11" width="245.58" height="6.15" rx="3.08" ry="3.08"/><rect class="cls-4" x="55.61" y="343.61" width="245.58" height="6.15" rx="3.08" ry="3.08"/><rect class="cls-4" x="55.61" y="363.11" width="245.58" height="6.15" rx="3.08" ry="3.08"/><rect class="cls-4" x="55.61" y="381.86" width="245.58" height="6.15" rx="3.08" ry="3.08"/><rect class="cls-4" x="55.61" y="400.61" width="245.58" height="6.15" rx="3.08" ry="3.08"/><rect class="cls-4" x="55.19" y="419.36" width="245.58" height="6.15" rx="3.08" ry="3.08"/><rect class="cls-7" x="58.31" y="494.37" width="63.43" height="63.43" rx="31.71" ry="31.71"/><rect class="cls-7" x="147.45" y="494.37" width="63.43" height="63.43" rx="31.71" ry="31.71"/><rect class="cls-7" x="234.06" y="494.37" width="63.43" height="63.43" rx="31.71" ry="31.71"/><rect class="cls-8" x="171.93" y="514.57" width="63" height="57"/><text class="cls-9" transform="translate(80.66 536.85)">1</text><text class="cls-9" transform="translate(169.85 536.24)">2</text><text class="cls-9" transform="translate(257.41 537.98)">3</text><text class="cls-10" transform="translate(40 194.71)">STELLING 1</text><line class="cls-11" x1="40" y1="215.03" x2="224.65" y2="215.03"/></g></g></svg>