<svg xmlns="http://www.w3.org/2000/svg" viewBox="0 0 21.03 30"><defs><style>.cls-1{fill:#34495e;}</style></defs><title>transport_icon</title><g id="Layer_2" data-name="Layer 2"><g id="Layer_1-2" data-name="Layer 1"><path class="cls-1" d="M.52,30a.37.37,0,0,1-.3-.1.62.62,0,0,1-.1-.7l5-6a.62.62,0,0,1,.7-.1.62.62,0,0,1,.1.7l-5,6A.76.76,0,0,1,.52,30Z"/><path class="cls-1" d="M20.52,30a.76.76,0,0,1-.4-.2l-5-6a.49.49,0,0,1,.1-.7.43.43,0,0,1,.7.1l5,6a.49.49,0,0,1-.1.7A.37.37,0,0,1,20.52,30Z"/><path class="cls-1" d="M18,24H3a3.1,3.1,0,0,1-2.2-.9A2.74,2.74,0,0,1,0,20.8L.92,4.1A4.36,4.36,0,0,1,5.22,0h10.6a4.29,4.29,0,0,1,4.3,4.1L21,20.8A2.93,2.93,0,0,1,18,24ZM5.22,1a3.36,3.36,0,0,0-3.3,3.1L1,20.8a2,2,0,0,0,.6,1.5A1.75,1.75,0,0,0,3,23h14.9a2,2,0,0,0,1.5-.6,2.2,2.2,0,0,0,.6-1.5l-.9-16.8A3.36,3.36,0,0,0,15.82,1Z"/><path class="cls-1" d="M10.52,5A1.54,1.54,0,0,1,9,3.5a1.5,1.5,0,0,1,3,0A1.54,1.54,0,0,1,10.52,5Zm0-2a.47.47,0,0,0-.5.5.5.5,0,0,0,1,0A.47.47,0,0,0,10.52,3Z"/><path class="cls-1" d="M3.52,11a.37.37,0,0,1-.3-.1.52.52,0,0,1-.2-.4v-4c0-.2.2-.5.4-.5l6-1a.6.6,0,0,1,.4.1.52.52,0,0,1,.2.4v4c0,.2-.2.5-.4.5l-6.1,1ZM4,6.9v3l5-.8v-3Z"/><path class="cls-1" d="M17.52,11h0l-6.1-1a.46.46,0,0,1-.4-.5v-4a.76.76,0,0,1,.2-.4c.1-.1.2-.1.4-.1l6,1a.46.46,0,0,1,.4.5v4a.76.76,0,0,1-.2.4A.37.37,0,0,1,17.52,11ZM12,9.1l5,.8v-3l-5-.8Z"/><path class="cls-1" d="M10.52,19a.52.52,0,0,1-.4-.2c0-.1-4.9-6.8-8.6-6.8a.5.5,0,1,1,0-1c4.2,0,9.2,6.9,9.4,7.2a.49.49,0,0,1-.1.7A.37.37,0,0,1,10.52,19Z"/><path class="cls-1" d="M10.52,19a.37.37,0,0,1-.3-.1.49.49,0,0,1-.1-.7c.2-.3,5.2-7.2,9.4-7.2a.5.5,0,0,1,0,1c-3.7,0-8.5,6.7-8.6,6.8A.52.52,0,0,1,10.52,19Z"/><path class="cls-1" d="M4.52,21a1.5,1.5,0,0,1,0-3,1.5,1.5,0,0,1,0,3Zm0-2a.5.5,0,0,0,0,1,.5.5,0,0,0,0-1Z"/><path class="cls-1" d="M16.52,21A1.5,1.5,0,1,1,18,19.5,1.54,1.54,0,0,1,16.52,21Zm0-2a.5.5,0,1,0,.5.5A.47.47,0,0,0,16.52,19Z"/><path class="cls-1" d="M17,26H4a.5.5,0,0,1,0-1H17a.5.5,0,1,1,0,1Z"/><path class="cls-1" d="M19.52,29h-18a.5.5,0,0,1,0-1h18a.5.5,0,1,1,0,1Z"/></g></g></svg>
