<svg xmlns="http://www.w3.org/2000/svg" viewBox="0 0 222.44 230"><defs><style>.cls-1{fill:#fff;}</style></defs><title>transport_icon</title><g id="Layer_2" data-name="Layer 2"><g id="Layer_1-2" data-name="Layer 1"><g id="Page-1"><g id="OnderwerpTransport"><g id="bus-1"><g id="Layer_1-3" data-name="Layer 1"><g id="Group"><path id="Shape" class="cls-1" d="M177.95,207H44.49a19.31,19.31,0,0,1-15.34-6.9A20.32,20.32,0,0,1,23,183.23l6.9-152.57C30.68,13,44.49,0,60.59,0H161.84c16.11,0,29.91,13.8,30.68,30.67l6.9,152.57c0,6.13-2.3,13-6.14,16.87-4.6,4.6-10,6.9-15.34,6.9ZM60.59,7.67c-12.27,0-22.24,10-23,23.77l-6.9,151.8a15.6,15.6,0,0,0,4.6,11.5,12,12,0,0,0,9.2,4.6h132.7c3.84,0,6.9-1.53,10-4.6a15.6,15.6,0,0,0,4.6-11.5l-6.9-151.8c-.77-13-10.74-23.77-23-23.77Z"/><path id="Shape-2" data-name="Shape" class="cls-1" d="M30.68,84.33H14.57C6.9,84.33,0,78.2,0,70.53v-9.2c0-13,11.51-23,25.31-23h5.37a3.62,3.62,0,0,1,3.84,3.83A3.62,3.62,0,0,1,30.68,46H25.31c-10,0-17.64,6.9-17.64,15.33v10c0,3.07,3.07,6.13,6.9,6.13H30.68c2.3-.77,3.84.77,3.84,3.07a3.62,3.62,0,0,1-3.84,3.83Z"/><path id="Shape-3" data-name="Shape" class="cls-1" d="M207.86,84.33H191.76a3.83,3.83,0,1,1,0-7.67h16.11c3.84,0,6.9-2.3,6.9-6.13v-9.2c0-8.43-7.67-15.33-17.64-15.33h-5.37a3.62,3.62,0,0,1-3.84-3.83,3.62,3.62,0,0,1,3.84-3.83h5.37c13.81,0,25.31,10,25.31,23v10c0,6.9-6.9,13-14.57,13Z"/><path id="Shape-4" data-name="Shape" class="cls-1" d="M111.22,130.33c-32.22,0-65.2-7.67-65.2-23l3.07-79c.77-7.67,6.14-13,13-13h98.95c6.9,0,12.27,5.37,12.27,13h0l3.07,78.2c0,16.1-33,23.77-65.2,23.77ZM62.13,23a5.24,5.24,0,0,0-5.37,5.37l-3.07,79c0,6.13,22.24,15.33,57.53,15.33s57.53-9.2,57.53-15.33l-3.07-79c0-3.07-2.3-5.37-4.6-5.37Z"/><path id="Shape-5" data-name="Shape" class="cls-1" d="M61.36,184A15.33,15.33,0,1,1,76.7,168.67,15.38,15.38,0,0,1,61.36,184Zm0-23a7.67,7.67,0,1,0,0,15.33,7.67,7.67,0,1,0,0-15.33Z"/><path id="Shape-6" data-name="Shape" class="cls-1" d="M161.08,184a15.33,15.33,0,1,1,15.34-15.33A15.38,15.38,0,0,1,161.08,184Zm0-23a7.67,7.67,0,1,0,7.67,7.67,7.24,7.24,0,0,0-7.67-7.67Z"/><path id="Shape-7" data-name="Shape" class="cls-1" d="M71.33,230H52.16c-7.67,0-13.81-6.9-13.81-15.33v-11.5a3.62,3.62,0,0,1,3.84-3.83A3.62,3.62,0,0,1,46,203.17v11.5c0,3.83,2.3,7.67,6.14,7.67H71.33c3.07,0,6.14-3.83,6.14-7.67v-11.5a3.84,3.84,0,0,1,7.67,0v11.5C84.37,223.1,78.24,230,71.33,230Z"/><path id="Shape-8" data-name="Shape" class="cls-1" d="M171,230H151.87c-7.67,0-13.81-6.9-13.81-15.33v-11.5a3.84,3.84,0,0,1,7.67,0v11.5c0,3.83,2.3,7.67,6.14,7.67H171c3.07,0,6.14-3.83,6.14-7.67v-11.5a3.84,3.84,0,0,1,7.67,0v11.5C184.09,223.1,177.95,230,171,230Z"/><path id="Shape-9" data-name="Shape" class="cls-1" d="M134.23,145.67h-46a3.83,3.83,0,1,1,0-7.67h46a3.83,3.83,0,1,1,0,7.67Z"/><path id="Shape-10" data-name="Shape" class="cls-1" d="M134.23,168.67h-46a3.83,3.83,0,1,1,0-7.67h46a3.83,3.83,0,1,1,0,7.67Z"/><path id="Shape-11" data-name="Shape" class="cls-1" d="M134.23,191.67h-46a3.83,3.83,0,1,1,0-7.67h46a3.83,3.83,0,1,1,0,7.67Z"/></g></g></g></g></g></g></g></svg>